ffmpeg version 4.2.4-1ubuntu0.1 Copyright (c) 2000-2020 the FFmpeg developers
  built with gcc 9 (Ubuntu 9.3.0-10ubuntu2)
  configuration: --prefix=/usr --extra-version=1ubuntu0.1 --toolchain=hardened --libdir=/usr/lib/x86_64-linux-gnu --incdir=/usr/include/x86_64-linux-gnu --arch=amd64 --enable-gpl --disable-stripping --enable-avresample --disable-filter=resample --enable-avisynth --enable-gnutls --enable-ladspa --enable-libaom --enable-libass --enable-libbluray --enable-libbs2b --enable-libcaca --enable-libcdio --enable-libcodec2 --enable-libflite --enable-libfontconfig --enable-libfreetype --enable-libfribidi --enable-libgme --enable-libgsm --enable-libjack --enable-libmp3lame --enable-libmysofa --enable-libopenjpeg --enable-libopenmpt --enable-libopus --enable-libpulse --enable-librsvg --enable-librubberband --enable-libshine --enable-libsnappy --enable-libsoxr --enable-libspeex --enable-libssh --enable-libtheora --enable-libtwolame --enable-libvidstab --enable-libvorbis --enable-libvpx --enable-libwavpack --enable-libwebp --enable-libx265 --enable-libxml2 --enable-libxvid --enable-libzmq --enable-libzvbi --enable-lv2 --enable-omx --enable-openal --enable-opencl --enable-opengl --enable-sdl2 --enable-libdc1394 --enable-libdrm --enable-libiec61883 --enable-nvenc --enable-chromaprint --enable-frei0r --enable-libx264 --enable-shared
  libavutil      56. 31.100 / 56. 31.100
  libavcodec     58. 54.100 / 58. 54.100
  libavformat    58. 29.100 / 58. 29.100
  libavdevice    58.  8.100 / 58.  8.100
  libavfilter     7. 57.100 /  7. 57.100
  libavresample   4.  0.  0 /  4.  0.  0
  libswscale      5.  5.100 /  5.  5.100
  libswresample   3.  5.100 /  3.  5.100
  libpostproc    55.  5.100 / 55.  5.100
Input #0, image2, from './Cubo/Cubo%02d.png':
  Duration: 00:00:04.00, start: 0.000000, bitrate: N/A
    Stream #0:0: Video: png, rgb24(pc), 320x240, 25 fps, 25 tbr, 25 tbn, 25 tbc
Stream mapping:
  Stream #0:0 -> #0:0 (png (native) -> h264 (libx264))
Press [q] to stop, [?] for help
[libx264 @ 0x563ee2743a80] using cpu capabilities: MMX2 SSE2Fast SSSE3 SSE4.2 AVX FMA3 BMI2 AVX2
[libx264 @ 0x563ee2743a80] profile High 4:4:4 Predictive, level 1.3, 4:4:4 8-bit
Output #0, avi, to 'exercici5/cubo_h264_g100_ref0_r25.avi':
  Metadata:
    ISFT            : Lavf58.29.100
    Stream #0:0: Video: h264 (libx264) (H264 / 0x34363248), yuv444p, 320x240, q=-1--1, 25 fps, 25 tbn, 25 tbc
    Metadata:
      encoder         : Lavc58.54.100 libx264
    Side data:
      cpb: bitrate max/min/avg: 0/0/0 buffer size: 0 vbv_delay: -1
frame=  100 fps=0.0 q=-1.0 Lsize=     398kB time=00:00:03.92 bitrate= 832.8kbits/s speed=17.7x    
video:391kB audio:0kB subtitle:0kB other streams:0kB global headers:0kB muxing overhead: 2.034192%
bench: utime=0.751s stime=0.031s rtime=0.223s
bench: maxrss=91056kB
[libx264 @ 0x563ee2743a80] frame I:9     Avg QP:25.17  size:  6303
[libx264 @ 0x563ee2743a80] frame P:29    Avg QP:28.27  size:  4445
[libx264 @ 0x563ee2743a80] frame B:62    Avg QP:29.53  size:  3456
[libx264 @ 0x563ee2743a80] consecutive B-frames: 16.0%  4.0%  0.0% 80.0%
[libx264 @ 0x563ee2743a80] mb I  I16..4: 20.7%  0.0% 79.3%
[libx264 @ 0x563ee2743a80] mb P  I16..4: 12.8%  0.0% 52.5%  P16..4: 13.2% 12.5%  5.6%  0.0%  0.0%    skip: 3.4%
[libx264 @ 0x563ee2743a80] mb B  I16..4:  2.8%  0.0% 23.1%  B16..8: 28.1% 21.9%  7.2%  direct: 5.9%  skip:11.0%  L0:36.8% L1:44.4% BI:18.9%
[libx264 @ 0x563ee2743a80] coded y,u,v intra: 73.9% 59.0% 62.4% inter: 36.1% 12.5% 15.2%
[libx264 @ 0x563ee2743a80] i16 v,h,dc,p: 18% 34% 18% 31%
[libx264 @ 0x563ee2743a80] i4 v,h,dc,ddl,ddr,vr,hd,vl,hu: 25% 13% 19%  9%  6%  8%  5% 12%  4%
[libx264 @ 0x563ee2743a80] Weighted P-Frames: Y:6.9% UV:6.9%
[libx264 @ 0x563ee2743a80] kb/s:799.83
